<?xml version="1.0" encoding="UTF-8" standalone="no"?>
<!DOCTYPE svg PUBLIC "-//W3C//DTD SVG 1.1//EN" "http://www.w3.org/Graphics/SVG/1.1/DTD/svg11.dtd">
<svg xmlns="http://www.w3.org/2000/svg" xmlns:xlink="http://www.w3.org/1999/xlink" version="1.1" width="564.2619pt" height="166.9436pt" viewBox="0 0 564.2619 166.9436">
<g enable-background="new">
<g id="Layer-1" data-name="Layer 1">
<path transform="matrix(2.7777777,0,0,-2.7777777,2.7777777,164.16584)" d="M 27.4195 58.0997 L 37.0933 58.0997 L 37.0933 16.5549 L 28.3689 16.5549 L 9.555 42.2535 L 9.6738 31.0363 L 9.6738 16.5549 L 0 16.5549 L 0 58.0997 L 8.7239 58.0997 L 27.538 32.2826 L 27.4195 43.3811 Z " fill="#0d4e30"/>
<path transform="matrix(2.7777777,0,0,-2.7777777,2.7777777,164.16584)" d="M 197.9294 43.2626 C 200.0659 41.0862 201.1343 38.0991 201.1343 34.3009 L 201.1343 16.5552 L 191.8162 16.5552 L 191.8162 33.1135 C 191.8162 34.8542 191.4103 36.2092 190.5993 37.1789 C 189.788 38.1481 188.6505 38.6334 187.187 38.6334 C 185.5644 38.6334 184.2792 38.0786 183.3293 36.9714 C 182.3794 35.8634 181.9052 34.399 181.9052 32.5797 L 181.9052 16.5552 L 172.6464 16.5552 L 172.6464 33.1135 C 172.6464 34.8542 172.2506 36.2092 171.4595 37.1789 C 170.6675 38.1481 169.5399 38.6334 168.0766 38.6334 C 166.4535 38.6334 165.1578 38.0786 164.1895 36.9714 C 163.2192 35.8634 162.7353 34.399 162.7353 32.5797 L 162.7353 16.5552 L 153.4173 16.5552 L 153.4173 45.8736 L 161.4886 45.8736 L 162.023 42.6098 C 163.0511 43.8749 164.2873 44.8444 165.7318 45.5176 C 167.1761 46.1903 168.7294 46.5265 170.3908 46.5265 C 172.29 46.5265 173.9908 46.1208 175.4949 45.3101 C 176.9981 44.4986 178.1855 43.3811 179.0561 41.9567 C 181.4301 45.0031 184.7928 46.5265 189.1457 46.5265 C 192.8642 46.5265 195.7924 45.4382 197.9294 43.2626 " fill="#0d4e30"/>
<path transform="matrix(2.7777777,0,0,-2.7777777,2.7777777,164.16584)" d="M 109.8519 16.7564 C 109.8519 16.7564 110.1821 1.1375 93.1946 .0048 C 93.1946 .0048 77.6696 -.7503 76.0652 16.8032 C 76.0652 16.8032 91.9675 17.4172 93.0056 .1936 C 93.0056 .1936 93.5249 15.8128 109.8519 16.7564 " fill="#0d4e30"/>
<path transform="matrix(2.7777777,0,0,-2.7777777,2.7777777,164.16584)" d="M 109.8519 16.7564 C 109.8519 16.7564 110.1821 1.1375 93.1946 .0048 C 93.1946 .0048 77.6696 -.7503 76.0652 16.8032 C 76.0652 16.8032 91.9675 17.4172 93.0056 .1936 C 93.0056 .1936 93.5249 15.8128 109.8519 16.7564 " fill="#83c717"/>
<path transform="matrix(2.7777777,0,0,-2.7777777,2.7777777,164.16584)" d="M 110.2334 32.2481 C 110.2334 27.447 108.2866 23.0995 105.1398 19.9525 C 101.9928 16.8058 97.6453 14.8589 92.8443 14.8589 C 88.0432 14.8589 83.6955 16.8058 80.549 19.9528 C 77.402 23.0992 75.4551 27.447 75.4551 32.2481 C 75.4551 37.0491 77.402 41.3969 80.5487 44.5439 C 83.6957 47.6909 88.0435 49.6378 92.8443 49.6378 C 97.6456 49.6378 101.9928 47.6909 105.1398 44.5439 C 108.2866 41.3972 110.2334 37.0497 110.2334 32.2481 Z M 97.9157 27.1766 C 99.2132 28.474 100.0159 30.2672 100.0159 32.2481 C 100.0159 34.2289 99.2132 36.0224 97.9157 37.3198 C 96.6183 38.6175 94.8251 39.4203 92.8443 39.4203 C 90.8637 39.4203 89.0705 38.6175 87.7728 37.3198 C 86.4754 36.0224 85.6726 34.2289 85.6726 32.2481 C 85.6726 30.2675 86.4757 28.4743 87.7731 27.1769 C 89.0705 25.8795 90.8637 25.0764 92.8443 25.0764 C 94.8251 25.0764 96.6183 25.8792 97.9157 27.1766 " fill="#83c717"/>
<path transform="matrix(2.7777777,0,0,-2.7777777,2.7777777,164.16584)" d="M 109.046 42.0576 L 94.7305 42.0576 L 94.7305 48.3928 L 109.046 48.3928 Z " fill="#83c717"/>
<path transform="matrix(-1.4750555,-.5384444,.5384444,-1.4750555,2.7777777,164.16584)" stroke-width="2.0863" stroke-linecap="round" stroke-miterlimit="22.925585" stroke-linejoin="miter" fill="none" stroke="#fefefe" d="M -124.6822 129.1989 C -124.6822 129.1989 -107.3577 119.6739 -114.7822 101.7488 "/>
<path transform="matrix(2.7777777,0,0,-2.7777777,2.7777777,164.16584)" stroke-width="1.1795" stroke-linecap="butt" stroke-miterlimit="2.6131259" stroke-linejoin="miter" fill="none" stroke="#fefefe" d="M 92.7972 45.8476 C 93.6017 45.8476 94.254 45.1928 94.254 44.3849 C 94.254 43.577 93.6017 42.9222 92.7972 42.9222 C 91.993 42.9222 91.3408 43.577 91.3408 44.3849 C 91.3408 45.1928 91.993 45.8476 92.7972 45.8476 Z "/>
<path transform="matrix(0,1.5545554,1.5508056,0,2.7777777,164.16584)" stroke-width="2.1127" stroke-linecap="round" stroke-miterlimit="22.925585" stroke-linejoin="miter" fill="none" stroke="#fefefe" d="M -38.7162 177.5239 C -38.7162 177.5239 -28.8023 160.3619 -44.6437 148.9394 "/>
<path transform="matrix(2.7777777,0,0,-2.7777777,2.7777777,164.16584)" stroke-width="1.1795" stroke-linecap="butt" stroke-miterlimit="2.6131259" stroke-linejoin="miter" fill="none" stroke="#fefefe" d="M 82.2577 27.8036 C 83.0622 27.8036 83.7145 27.1488 83.7145 26.3409 C 83.7145 25.5331 83.0622 24.8783 82.2577 24.8783 C 81.4533 24.8783 80.8013 25.5331 80.8013 26.3409 C 80.8013 27.1488 81.4533 27.8036 82.2577 27.8036 Z "/>
<path transform="matrix(1.5163334,0,0,-1.5163334,2.7777777,164.16584)" stroke-width="2.1606" stroke-linecap="round" stroke-miterlimit="22.925585" stroke-linejoin="miter" fill="none" stroke="#fefefe" d="M 180.7381 78.4298 C 180.7381 78.4298 198.0624 68.9049 190.6376 50.9797 "/>
<path transform="matrix(2.7777777,0,0,-2.7777777,2.7777777,164.16584)" stroke-width="1.1795" stroke-linecap="butt" stroke-miterlimit="2.6131259" stroke-linejoin="miter" fill="none" stroke="#fefefe" d="M 103.4731 27.8263 C 104.2775 27.8263 104.9298 27.1715 104.9298 26.3636 C 104.9298 25.5557 104.2775 24.9009 103.4731 24.9009 C 102.6686 24.9009 102.0166 25.5557 102.0166 26.3636 C 102.0166 27.1715 102.6686 27.8263 103.4731 27.8263 Z "/>
<path transform="matrix(2.7777777,0,0,-2.7777777,2.7777777,164.16584)" d="M 149.0956 46.1999 L 149.0956 16.8814 L 141.0248 16.8814 L 140.4306 20.3831 C 137.9384 17.653 134.6933 16.2882 130.6976 16.2882 C 127.9675 16.2882 125.5433 16.9305 123.4273 18.2169 C 121.3101 19.5021 119.6583 21.3035 118.4717 23.6177 C 117.2843 25.9325 116.691 28.5732 116.691 31.5408 C 116.691 34.5081 117.2843 37.1497 118.4717 39.4642 C 119.6583 41.7787 121.3101 43.5784 123.4273 44.8648 C 125.5433 46.15 127.9675 46.7938 130.6976 46.7938 C 132.6753 46.7938 134.4963 46.4471 136.158 45.7551 C 137.8196 45.0624 139.2437 44.0637 140.4306 42.7581 L 141.0248 46.1999 Z " fill="#0d4e30"/>
<path transform="matrix(2.7777777,0,0,-2.7777777,2.7777777,164.16584)" d="M 131.1395 35.2743 L 126.9819 35.2525 C 126.6738 35.7185 126.2597 37.3859 125.9552 38.0829 C 125.6145 38.8636 124.7071 40.055 124.7584 40.733 C 125.8943 40.8835 127.1744 40.7974 128.3323 40.7948 C 129.5093 40.7925 128.9543 40.4932 129.8979 38.1129 C 130.1159 37.5633 130.3078 37.1625 130.5893 36.6871 C 130.8526 36.2421 131.296 35.8149 131.1395 35.2743 " fill="#fefefe" fill-rule="evenodd"/>
<path transform="matrix(2.7777777,0,0,-2.7777777,2.7777777,164.16584)" d="M 133.9081 28.9964 L 129.6255 28.9386 C 129.2995 29.7258 129.0991 30.8373 128.7048 31.7696 C 128.376 32.5471 127.4956 33.7952 127.4556 34.4208 C 128.3868 34.5552 129.3647 34.471 130.3078 34.482 C 131.978 34.5013 131.7064 34.6453 132.1172 33.2376 C 132.804 30.8823 133.9688 29.7108 133.9081 28.9964 " fill="#fefefe" fill-rule="evenodd"/>
<path transform="matrix(2.7777777,0,0,-2.7777777,2.7777777,164.16584)" d="M 136.6753 22.6312 C 135.6625 22.5663 134.6411 22.6111 133.626 22.5978 C 131.9221 22.5751 132.3828 22.5173 131.9389 23.9754 C 131.3476 25.9169 130.2117 27.5519 130.1301 28.1429 L 134.3846 28.0687 C 134.6389 27.7449 135.1794 25.8146 135.4411 25.2261 C 135.7756 24.474 136.633 23.3206 136.6753 22.6312 " fill="#fefefe" fill-rule="evenodd"/>
<path transform="matrix(2.7777777,0,0,-2.7777777,2.7777777,164.16584)" d="M 133.0894 35.1244 C 132.0004 37.8111 134.4929 40.7514 136.8632 40.7154 C 137.4273 37.3567 135.8059 35.7987 133.0894 35.1244 " fill="#fefefe" fill-rule="evenodd"/>
<path transform="matrix(2.7777777,0,0,-2.7777777,2.7777777,164.16584)" d="M 128.3244 28.2915 C 125.6922 27.7656 124.4404 28.7901 123.5591 30.6337 C 124.6544 31.5629 127.8573 30.7624 128.3244 28.2915 " fill="#fefefe" fill-rule="evenodd"/>
<path transform="matrix(2.7777777,0,0,-2.7777777,2.7777777,164.16584)" d="M 137.876 31.6689 C 136.8663 31.6573 135.841 31.7384 135.0887 32.2753 C 134.517 32.6832 133.8951 33.3998 133.6059 34.1385 C 136.0417 34.1997 137.1623 33.3281 137.876 31.6689 " fill="#fefefe" fill-rule="evenodd"/>
<path transform="matrix(2.7777777,0,0,-2.7777777,2.7777777,164.16584)" d="M 128.8718 27.2098 C 128.8188 25.2286 128.0225 24.1376 126.1726 23.883 C 126.0405 25.9492 127.0746 26.8809 128.8718 27.2098 " fill="#fefefe" fill-rule="evenodd"/>
<path transform="matrix(2.7777777,0,0,-2.7777777,2.7777777,164.16584)" d="M 53.3761 49.9901 L 53.3761 41.5877 L 66.9263 41.5877 L 66.9263 33.7771 L 53.3761 33.7771 L 53.3761 24.6648 L 68.7016 24.6648 L 68.7016 16.5583 L 43.2578 16.5583 L 43.2578 58.0966 L 68.7016 58.0966 L 68.7016 49.9901 Z " fill="#0d4e30"/>
</g>
</g>
</svg>
