<?xml version="1.0" encoding="UTF-8"?>
<svg id="Layer_1" xmlns="http://www.w3.org/2000/svg" version="1.1" viewBox="0 0 216 108">
  <!-- Generator: Adobe Illustrator 30.0.0, SVG Export Plug-In . SVG Version: 2.1.1 Build 123)  -->
  <defs>
    <style>
      .st0 {
        fill-rule: evenodd;
      }

      .st0, .st1 {
        fill: #0f4f31;
      }

      .st2 {
        fill: #fff;
      }

      .st3 {
        fill: #85c441;
      }
    </style>
  </defs>
  <polygon class="st2" points="31.6 23.6 41.7 23.6 41.7 67.1 32.6 67.1 12.9 40.2 13 51.9 13 67.1 2.9 67.1 2.9 23.6 12 23.6 31.7 50.6 31.6 39 31.6 23.6"/>
  <path class="st2" d="M209.7,39.1c2.2,2.3,3.3,5.4,3.3,9.4v18.5h-9.7v-17.3c0-1.8-.4-3.2-1.3-4.2-.8-1-2-1.5-3.6-1.5s-3,.6-4,1.7c-1,1.2-1.5,2.7-1.5,4.6v16.7h-9.7v-17.3c0-1.8-.4-3.2-1.2-4.2-.8-1-2-1.5-3.5-1.5s-3,.6-4.1,1.7c-1,1.2-1.5,2.7-1.5,4.6v16.7h-9.7v-30.6h8.4l.6,3.4c1.1-1.3,2.4-2.3,3.9-3,1.5-.7,3.1-1.1,4.9-1.1s3.8.4,5.3,1.3c1.6.8,2.8,2,3.7,3.5,2.5-3.2,6-4.8,10.5-4.8s6.9,1.1,9.2,3.4"/>
  <path class="st1" d="M117.7,66.8s.3,16.3-17.4,17.5c0,0-16.2.8-17.9-17.6,0,0,16.6-.6,17.7,17.4,0,0,.5-16.3,17.6-17.3"/>
  <g>
    <path class="st2" d="M117.7,66.8s.3,16.3-17.4,17.5c0,0-16.2.8-17.9-17.6,0,0,16.6-.6,17.7,17.4,0,0,.5-16.3,17.6-17.3"/>
    <path class="st2" d="M105.2,56c1.4-1.4,2.2-3.2,2.2-5.3s-.8-3.9-2.2-5.3c-1.4-1.4-3.2-2.2-5.3-2.2s-3.9.8-5.3,2.2c-1.4,1.4-2.2,3.2-2.2,5.3s.8,3.9,2.2,5.3c1.4,1.4,3.2,2.2,5.3,2.2s3.9-.8,5.3-2.2M118.1,50.7c0,5-2,9.6-5.3,12.8-3.3,3.3-7.8,5.3-12.8,5.3s-9.6-2-12.8-5.3c-3.3-3.3-5.3-7.8-5.3-12.8s2-9.6,5.3-12.8c3.3-3.3,7.8-5.3,12.8-5.3s9.6,2,12.8,5.3c3.3,3.3,5.3,7.8,5.3,12.8Z"/>
    <rect class="st2" x="101.9" y="33.8" width="15" height="6.6"/>
  </g>
  <path class="st3" d="M87.2,51.8c-.3,0-.6-.3-.6-.6-.5-11.9,11.5-13.8,11.6-13.9.3,0,.7.2.7.5,0,.3-.2.7-.5.7-.4,0-11,1.8-10.5,12.6,0,.3-.2.6-.6.6,0,0,0,0,0,0Z"/>
  <path class="st3" d="M99.9,40.1c-1.2,0-2.1-1-2.1-2.1s1-2.1,2.1-2.1,2.1,1,2.1,2.1-1,2.1-2.1,2.1ZM99.9,37.1c-.5,0-.9.4-.9.9s.4.9.9.9.9-.4.9-.9-.4-.9-.9-.9Z"/>
  <path class="st3" d="M99.5,64.1c-3.3,0-7.1-1.2-10.2-5.5-.2-.3-.1-.7.1-.9.3-.2.7-.1.9.1,6.3,8.7,15.5,3.5,15.9,3.3.3-.2.7,0,.8.2.2.3,0,.7-.2.8,0,0-3.3,1.9-7.3,1.9Z"/>
  <path class="st2" d="M88.9,59c-1.2,0-2.1-1-2.1-2.1s1-2.1,2.1-2.1,2.1,1,2.1,2.1-1,2.1-2.1,2.1ZM88.9,55.9c-.5,0-.9.4-.9.9s.4.9.9.9.9-.4.9-.9-.4-.9-.9-.9Z"/>
  <path class="st3" d="M111.7,55.9c0,0-.2,0-.2,0-.3-.1-.5-.5-.3-.8,4-9.6-5-14.7-5.4-14.9-.3-.2-.4-.5-.2-.8.2-.3.5-.4.8-.2.1,0,10.3,5.8,5.9,16.4,0,.2-.3.4-.6.4Z"/>
  <path class="st3" d="M111,59c-1.2,0-2.1-1-2.1-2.1s1-2.1,2.1-2.1,2.1,1,2.1,2.1-1,2.1-2.1,2.1ZM111,55.9c-.5,0-.9.4-.9.9s.4.9.9.9.9-.4.9-.9-.4-.9-.9-.9Z"/>
  <path class="st2" d="M158.7,36.1v30.6h-8.4l-.6-3.7c-2.6,2.9-6,4.3-10.2,4.3s-5.4-.7-7.6-2c-2.2-1.3-3.9-3.2-5.2-5.6-1.2-2.4-1.9-5.2-1.9-8.3s.6-5.9,1.9-8.3c1.2-2.4,3-4.3,5.2-5.6,2.2-1.3,4.7-2,7.6-2s4,.4,5.7,1.1c1.7.7,3.2,1.8,4.5,3.1l.6-3.6h8.4Z"/>
  <path class="st0" d="M139.9,47.5h-4.3c-.3-.5-.8-2.2-1.1-2.9-.4-.8-1.3-2.1-1.3-2.8,1.2-.2,2.5,0,3.7,0,1.2,0,.6.3,1.6,2.8.2.6.4,1,.7,1.5.3.5.7.9.6,1.5"/>
  <path class="st0" d="M142.8,54.1h-4.5c-.3-.8-.6-1.9-1-2.9-.3-.8-1.3-2.1-1.3-2.8,1-.1,2,0,3,0,1.7,0,1.5-.2,1.9,1.3.7,2.5,1.9,3.7,1.9,4.4"/>
  <path class="st0" d="M145.7,60.7c-1.1,0-2.1,0-3.2,0-1.8,0-1.3,0-1.8-1.4-.6-2-1.8-3.7-1.9-4.4h4.4c.3.4.8,2.4,1.1,3,.3.8,1.2,2,1.3,2.7"/>
  <path class="st0" d="M142,47.7c-1.1-2.8,1.5-5.9,3.9-5.8.6,3.5-1.1,5.1-3.9,5.8"/>
  <path class="st0" d="M137,54.8c-2.8.5-4.1-.5-5-2.4,1.1-1,4.5-.1,5,2.4"/>
  <path class="st0" d="M147,51.3c-1.1,0-2.1,0-2.9-.6-.6-.4-1.2-1.2-1.5-1.9,2.5,0,3.7.8,4.5,2.6"/>
  <path class="st0" d="M137.6,55.9c0,2.1-.9,3.2-2.8,3.5-.1-2.2.9-3.1,2.8-3.5"/>
  <polygon class="st2" points="58.7 32.1 58.7 40.9 72.8 40.9 72.8 49.1 58.7 49.1 58.7 58.6 74.7 58.6 74.7 67.1 48.1 67.1 48.1 23.6 74.7 23.6 74.7 32.1 58.7 32.1"/>
</svg>